<?xml version="1.0" ?><svg xmlns="http://www.w3.org/2000/svg" width="16" height="16" viewBox="0 0 16 16" fill="none"><path d="M13 7C13 4.23858 10.7614 2 8 2C6.36428 2 4.91201 2.78546 3.99979 3.99979L6 6L5 7H0V2L1 1L2.57542 2.57542C3.85905 1.00356 5.81233 0 8 0C11.866 0 15 3.13401 15 7H13Z" fill="black"/><path d="M3 11H5.00002V16H7.00002V8H5.00002L3.00002 10L3 11Z" fill="black"/><path fill-rule="evenodd" clip-rule="evenodd" d="M11 16C12.1046 16 13 15.1046 13 14V10C13 8.89543 12.1046 8 11 8H10C8.89543 8 8 8.89543 8 10V14C8 15.1046 8.89543 16 10 16H11ZM10 10H11V14H10V10Z" fill="black"/></svg>