<?xml version="1.0" ?><svg xmlns="http://www.w3.org/2000/svg" width="16" height="16" viewBox="0 0 16 16" fill="none"><path d="M3 11H5.00002V16H7.00002V8H5.00002L3.00002 10L3 11Z" fill="black"/><path fill-rule="evenodd" clip-rule="evenodd" d="M11 16C12.1046 16 13 15.1046 13 14V10C13 8.89543 12.1046 8 11 8H10C8.89543 8 8 8.89543 8 10V14C8 15.1046 8.89543 16 10 16H11ZM10 10H11V14H10V10Z" fill="black"/><path d="M3 7C3 4.23858 5.23858 2 8 2C9.63572 2 11.088 2.78546 12.0002 3.99979L10 6L11 7H16V2L15 1L13.4246 2.57542C12.1409 1.00356 10.1877 0 8 0C4.13401 0 1 3.13401 1 7H3Z" fill="black"/></svg>