<?xml version="1.0" standalone="no"?>
<!DOCTYPE svg PUBLIC "-//W3C//DTD SVG 20010904//EN"
 "http://www.w3.org/TR/2001/REC-SVG-20010904/DTD/svg10.dtd">
<svg version="1.0" xmlns="http://www.w3.org/2000/svg"
 width="24.000000pt" height="24.000000pt" viewBox="0 0 24.000000 24.000000"
 preserveAspectRatio="xMidYMid meet">

<g transform="translate(0.000000,24.000000) scale(0.100000,-0.100000)"
fill="#000000" stroke="none">
<path d="M54 206 c-34 -34 -43 -56 -24 -56 6 0 10 5 10 10 0 6 7 10 15 10 8 0
12 6 9 14 -7 19 13 30 61 32 46 2 79 -12 71 -31 -2 -7 2 -16 10 -19 8 -3 14
-15 14 -26 0 -30 -47 -27 -71 5 -19 23 -21 23 -39 7 -11 -9 -20 -24 -20 -34 0
-16 10 -18 76 -18 l76 0 -7 36 c-12 69 -52 104 -116 104 -22 0 -41 -10 -65
-34z m89 -83 c-7 -2 -19 -2 -25 0 -7 3 -2 5 12 5 14 0 19 -2 13 -5z"/>
<path d="M0 74 l0 -75 46 33 c25 18 48 36 50 39 2 4 -18 23 -46 43 l-50 36 0
-76z m54 18 l23 -17 -23 -18 c-31 -23 -34 -22 -34 18 0 40 3 42 34 17z"/>
<path d="M120 80 c0 -6 27 -10 60 -10 33 0 60 4 60 10 0 6 -27 10 -60 10 -33
0 -60 -4 -60 -10z"/>
</g>
</svg>
