<svg xmlns="http://www.w3.org/2000/svg" viewBox="0 0 64 64" width="64" height="64">
  <rect width="64" height="64" fill="none" />
  <g stroke="#FFFFFF" stroke-width="2" fill="none" stroke-linecap="round" stroke-linejoin="round">
    <path d="M12 16h40a2 2 0 0 1 2 2v34a2 2 0 0 1-2 2H12a2 2 0 0 1-2-2V18a2 2 0 0 1 2-2z" />
    <path d="M12 16c0-6 6-8 8-8h24c2 0 8 2 8 8M32 48c-4-4-12-4-12-4s8-4 12-4c4 0 12 4 12 4s-8 0-12 4z" />
    <polyline points="20 24 28 32 44 24" />
  </g>
  <circle cx="52" cy="12" r="8" fill="#FFFFFF" />
  <path d="M50 10l2 2 4-4" stroke="#000000" stroke-width="2" fill="none" stroke-linecap="round" stroke-linejoin="round" />
</svg>
