<svg viewBox="0 0 64 64" xml:space="preserve" xmlns="http://www.w3.org/2000/svg"><path d="M28.371 31.879a3.967 3.967 0 0 0 3.966 3.966c1.538 0 2.856-.884 3.514-2.163l.011.01 7.24-13.062-12.71 7.794.012.012c-1.207.681-2.033 1.959-2.033 3.443zM48.315 12.981C44.251 9.429 39 7.161 33 6.822v6.027c5 .318 7.946 1.906 10.904 4.384l4.411-4.252zM51.146 30h6.02c-.404-6-2.751-10.93-6.395-14.97l-4.259 4.233C49.078 22.203 50.766 26 51.146 30z" fill="#ffffff" class="fill-000000"></path><path d="M51.174 33c-.637 10-8.922 17.931-19.042 17.931-10.535 0-19.421-8.544-19.421-19.078C12.711 21.825 21 13.62 30 12.85V6.823C17 7.602 6.711 18.54 6.711 31.879c0 13.843 11.42 25.052 25.263 25.052C45.406 56.931 56.564 46 57.205 33h-6.031z" fill="#ffffff"></path></svg>